<svg xmlns="http://www.w3.org/2000/svg" viewBox="0 0 512 512" width="512" height="512"><path d="M347 61h-46V45c0-8.284-6.716-15-15-15h-47.57C232.239 12.539 215.556 0 196 0s-36.239 12.539-42.43 30H105c-8.284 0-15 6.716-15 15v16H45C20.187 61 0 81.187 0 106v361c0 24.813 20.187 45 45 45h302c24.813 0 45-20.187 45-45V106c0-24.813-20.187-45-45-45zm-227-1h46c8.284 0 15-6.716 15-15 0-8.271 6.729-15 15-15s15 6.729 15 15c0 8.284 6.716 15 15 15h45v16c0 8.271-6.729 15-15 15H135c-8.271 0-15-6.729-15-15V60zm242 407c0 8.271-6.729 15-15 15H45c-8.271 0-15-6.729-15-15V106c0-8.271 6.729-15 15-15h47.58c6.192 17.459 22.865 30 42.42 30h121c19.555 0 36.228-12.541 42.42-30H347c8.271 0 15 6.729 15 15v361z" data-original="#000000" class="active-path" data-old_color="#000000" fill="#454545"/><path d="M176.693 260.482c-5.808-5.906-15.306-5.985-21.212-.175l-50.394 49.568-19.481-19.481c-5.857-5.858-15.355-5.858-21.213 0-5.858 5.858-5.858 15.355 0 21.213l30.001 30A14.954 14.954 0 0 0 105 346c3.798 0 7.599-1.434 10.518-4.306l61-60c5.906-5.809 5.984-15.306.175-21.212zM176.693 365.482c-5.808-5.906-15.306-5.985-21.212-.175l-50.394 49.568-19.481-19.481c-5.857-5.858-15.355-5.858-21.213 0-5.858 5.858-5.858 15.355 0 21.213l30.001 30A14.954 14.954 0 0 0 105 451c3.798 0 7.599-1.434 10.518-4.306l61-60c5.906-5.809 5.984-15.306.175-21.212zM145.607 215.394L126.213 196l19.393-19.393c5.858-5.858 5.858-15.355 0-21.213-5.857-5.858-15.355-5.858-21.213 0L105 174.787l-19.394-19.393c-5.857-5.858-15.355-5.858-21.213 0-5.858 5.858-5.858 15.355 0 21.213L83.787 196l-19.393 19.393c-5.858 5.858-5.858 15.356 0 21.214 5.857 5.857 15.355 5.858 21.213 0L105 217.213l19.394 19.394c5.857 5.857 15.355 5.858 21.213 0 5.858-5.858 5.858-15.355 0-21.213zM317 181h-91c-8.284 0-15 6.716-15 15s6.716 15 15 15h91c8.284 0 15-6.716 15-15s-6.716-15-15-15zM317 286h-91c-8.284 0-15 6.716-15 15s6.716 15 15 15h91c8.284 0 15-6.716 15-15s-6.716-15-15-15zM317 391h-91c-8.284 0-15 6.716-15 15s6.716 15 15 15h91c8.284 0 15-6.716 15-15s-6.716-15-15-15zM467 91c-24.813 0-45 20.187-45 45v240c0 1.614.289 3.286.754 4.697l30 91a15 15 0 0 0 28.492 0l30-91c.504-1.532.754-3.232.754-4.697V136c0-24.813-20.187-45-45-45zm0 328.091l-12.388-37.576A27.302 27.302 0 0 1 467 378.573c4.376 0 8.596 1.018 12.388 2.942L467 419.091zm15-68.533a57.715 57.715 0 0 0-30-.001V211h30v139.558zM482 181h-30v-45c0-8.271 6.729-15 15-15s15 6.729 15 15v45z" data-original="#000000" class="active-path" data-old_color="#000000" fill="#454545"/></svg>